<mxfile host="65bd71144e">
    <diagram id="PJ49piRm-pktgj8cM1FV" name="Page-1">
        <mxGraphModel dx="926" dy="488" grid="1" gridSize="10" guides="1" tooltips="1" connect="1" arrows="1" fold="1" page="1" pageScale="1" pageWidth="850" pageHeight="1100" math="1" shadow="0">
            <root>
                <mxCell id="0"/>
                <mxCell id="1" parent="0"/>
                <mxCell id="33" value="Simulation" style="rounded=0;whiteSpace=wrap;html=1;verticalAlign=top;" parent="1" vertex="1">
                    <mxGeometry x="140" y="1" width="430" height="178" as="geometry"/>
                </mxCell>
                <mxCell id="14" value="" style="group" parent="1" vertex="1" connectable="0">
                    <mxGeometry y="11" width="110" height="180" as="geometry"/>
                </mxCell>
                <mxCell id="13" value="Dataset" style="rounded=0;whiteSpace=wrap;html=1;verticalAlign=top;" parent="14" vertex="1">
                    <mxGeometry width="110" height="180" as="geometry"/>
                </mxCell>
                <mxCell id="3" value="$${\chi}_{ds}$$" style="rounded=0;whiteSpace=wrap;html=1;" parent="14" vertex="1">
                    <mxGeometry x="25" y="94.73684210526315" width="60" height="28.421052631578945" as="geometry"/>
                </mxCell>
                <mxCell id="7" value="$$\mathbf{u}_{ds}$$" style="rounded=0;whiteSpace=wrap;html=1;" parent="14" vertex="1">
                    <mxGeometry x="25" y="47.368421052631575" width="60" height="28.421052631578945" as="geometry"/>
                </mxCell>
                <mxCell id="8" value="$$\dot{{\chi}}_{ds}$$" style="rounded=0;whiteSpace=wrap;html=1;" parent="14" vertex="1">
                    <mxGeometry x="25" y="142.10526315789474" width="60" height="28.421052631578945" as="geometry"/>
                </mxCell>
                <mxCell id="15" value="$$f$$" style="rounded=0;whiteSpace=wrap;html=1;verticalAlign=top;" parent="1" vertex="1">
                    <mxGeometry x="208" y="56" width="110" height="62.5" as="geometry"/>
                </mxCell>
                <mxCell id="23" value="&lt;span style=&quot;color: rgb(0, 0, 0); font-family: Helvetica; font-size: 12px; font-style: normal; font-variant-ligatures: normal; font-variant-caps: normal; font-weight: 400; letter-spacing: normal; orphans: 2; text-align: center; text-indent: 0px; text-transform: none; widows: 2; word-spacing: 0px; -webkit-text-stroke-width: 0px; background-color: rgb(251, 251, 251); text-decoration-thickness: initial; text-decoration-style: initial; text-decoration-color: initial; float: none; display: inline !important;&quot;&gt;$$\dot{{\chi}}$$&lt;/span&gt;" style="edgeStyle=none;html=1;exitX=1;exitY=0.5;exitDx=0;exitDy=0;" parent="1" source="15" target="17" edge="1">
                    <mxGeometry relative="1" as="geometry">
                        <mxPoint x="508" y="89.05714285714288" as="sourcePoint"/>
                    </mxGeometry>
                </mxCell>
                <mxCell id="25" value="&lt;span style=&quot;color: rgb(0, 0, 0); font-family: Helvetica; font-size: 12px; font-style: normal; font-variant-ligatures: normal; font-variant-caps: normal; font-weight: 400; letter-spacing: normal; orphans: 2; text-align: center; text-indent: 0px; text-transform: none; widows: 2; word-spacing: 0px; -webkit-text-stroke-width: 0px; background-color: rgb(251, 251, 251); text-decoration-thickness: initial; text-decoration-style: initial; text-decoration-color: initial; float: none; display: inline !important;&quot;&gt;$${\chi}$$&lt;/span&gt;" style="edgeStyle=none;html=1;entryX=0;entryY=0.75;entryDx=0;entryDy=0;" parent="1" source="17" target="15" edge="1">
                    <mxGeometry x="-0.7233" relative="1" as="geometry">
                        <mxPoint x="688" y="138.5" as="targetPoint"/>
                        <Array as="points">
                            <mxPoint x="540" y="87"/>
                            <mxPoint x="540" y="160"/>
                            <mxPoint x="148" y="158.5"/>
                            <mxPoint x="148" y="102.5"/>
                        </Array>
                        <mxPoint as="offset"/>
                    </mxGeometry>
                </mxCell>
                <mxCell id="17" value="$$\int$$" style="rounded=0;whiteSpace=wrap;html=1;" parent="1" vertex="1">
                    <mxGeometry x="365" y="56" width="120" height="60" as="geometry"/>
                </mxCell>
                <mxCell id="36" value="" style="edgeStyle=none;html=1;startArrow=classic;startFill=1;endArrow=none;endFill=0;" parent="1" source="34" target="17" edge="1">
                    <mxGeometry relative="1" as="geometry"/>
                </mxCell>
                <mxCell id="40" style="edgeStyle=none;html=1;entryX=1;entryY=0.5;entryDx=0;entryDy=0;" parent="1" source="34" target="39" edge="1">
                    <mxGeometry relative="1" as="geometry">
                        <Array as="points">
                            <mxPoint x="650" y="231"/>
                        </Array>
                    </mxGeometry>
                </mxCell>
                <mxCell id="34" value="$${\chi}$$" style="rounded=0;whiteSpace=wrap;html=1;" parent="1" vertex="1">
                    <mxGeometry x="620" y="71" width="60" height="30" as="geometry"/>
                </mxCell>
                <mxCell id="37" style="edgeStyle=none;html=1;entryX=0;entryY=0.25;entryDx=0;entryDy=0;" parent="1" source="7" target="15" edge="1">
                    <mxGeometry relative="1" as="geometry"/>
                </mxCell>
                <mxCell id="43" value="" style="edgeStyle=none;html=1;" parent="1" source="39" target="42" edge="1">
                    <mxGeometry relative="1" as="geometry"/>
                </mxCell>
                <mxCell id="44" style="edgeStyle=none;html=1;endArrow=none;endFill=0;startArrow=classic;startFill=1;" edge="1" parent="1" source="39">
                    <mxGeometry relative="1" as="geometry">
                        <mxPoint x="341.5" y="90" as="targetPoint"/>
                    </mxGeometry>
                </mxCell>
                <mxCell id="39" value="Comparison" style="ellipse;whiteSpace=wrap;html=1;" parent="1" vertex="1">
                    <mxGeometry x="279.5" y="211" width="124" height="40" as="geometry"/>
                </mxCell>
                <mxCell id="41" style="edgeStyle=none;html=1;entryX=0;entryY=0.5;entryDx=0;entryDy=0;" parent="1" source="3" target="39" edge="1">
                    <mxGeometry relative="1" as="geometry">
                        <Array as="points">
                            <mxPoint x="120" y="121"/>
                            <mxPoint x="120" y="231"/>
                        </Array>
                    </mxGeometry>
                </mxCell>
                <mxCell id="42" value="Model Accuracy" style="rounded=1;whiteSpace=wrap;html=1;" parent="1" vertex="1">
                    <mxGeometry x="282" y="281" width="119" height="60" as="geometry"/>
                </mxCell>
                <mxCell id="45" style="edgeStyle=none;html=1;entryX=0;entryY=0.5;entryDx=0;entryDy=0;startArrow=none;startFill=0;endArrow=classic;endFill=1;" edge="1" parent="1" source="8" target="39">
                    <mxGeometry relative="1" as="geometry">
                        <Array as="points">
                            <mxPoint x="55" y="230"/>
                        </Array>
                    </mxGeometry>
                </mxCell>
            </root>
        </mxGraphModel>
    </diagram>
</mxfile>